<?xml version="1.0" standalone="no"?>
<!DOCTYPE svg PUBLIC "-//W3C//DTD SVG 20010904//EN"
 "http://www.w3.org/TR/2001/REC-SVG-20010904/DTD/svg10.dtd">
<svg version="1.0" xmlns="http://www.w3.org/2000/svg"
 width="386.000000pt" height="386.000000pt" viewBox="0 0 386.000000 386.000000"
 preserveAspectRatio="xMidYMid meet">
<metadata>
Created by potrace 1.11, written by Peter Selinger 2001-2013
</metadata>
<g transform="translate(0.000000,386.000000) scale(0.100000,-0.100000)"
fill="#000000" stroke="none">
<path d="M2102 3704 c3 -5 1 -20 -4 -34 -7 -20 -11 -22 -18 -10 -11 17 -13 9
-4 -14 6 -15 44 -22 56 -11 10 10 -7 68 -21 73 -8 3 -11 1 -9 -4z"/>
<path d="M2162 3700 c1 -3 -2 -13 -6 -22 -4 -9 -3 -25 3 -35 9 -17 5 -19 -30
-22 -51 -3 -79 6 -79 25 0 8 -5 12 -11 9 -5 -4 -8 -12 -6 -18 2 -6 -8 -21 -22
-34 -17 -15 -20 -21 -8 -17 19 7 22 -3 8 -25 -11 -17 -41 -7 -41 14 0 22 -20
19 -48 -7 l-25 -23 6 25 c4 14 7 31 7 37 0 9 7 10 27 2 23 -9 30 -7 45 13 10
13 17 30 17 38 -1 13 -1 13 -6 0 -4 -8 -12 -20 -19 -27 -10 -11 -15 -10 -24 4
-11 17 -11 17 -6 1 3 -12 0 -18 -10 -18 -11 0 -14 6 -8 23 13 43 -5 10 -34
-61 -17 -40 -26 -72 -22 -72 4 0 11 10 14 23 7 21 7 21 16 2 7 -17 9 -17 9 -2
1 12 9 17 29 16 15 0 21 -3 14 -6 -6 -2 -10 -8 -7 -13 3 -5 -9 -11 -26 -15
-24 -5 -28 -10 -19 -19 10 -8 14 -8 17 2 3 6 9 12 14 12 6 0 7 -5 4 -10 -7
-12 5 -17 55 -24 83 -13 254 -85 383 -163 168 -101 182 -114 135 -127 -22 -6
-22 -7 -5 -20 9 -7 17 -16 17 -20 0 -4 15 -23 33 -43 17 -20 44 -50 60 -67 15
-17 27 -38 27 -48 0 -21 4 -22 31 -8 15 8 18 17 12 38 -16 65 -50 121 -107
176 -58 56 -61 60 -61 107 0 47 15 72 15 27 1 -16 7 -7 19 24 16 39 19 74 12
120 -1 4 -9 4 -18 1 -14 -5 -16 -4 -7 8 13 18 10 115 -5 133 -6 7 -8 16 -4 20
8 7 -15 26 -32 26 -5 0 -5 -4 1 -8 14 -8 22 -46 11 -49 -19 -7 -29 -2 -23 12
5 13 2 13 -18 -1 -16 -10 -26 -12 -31 -5 -3 6 -3 11 2 11 4 0 1 5 -7 10 -13 8
-12 10 3 10 10 0 15 5 12 11 -4 6 -14 7 -24 4 -29 -12 -71 -14 -71 -4 0 5 -8
9 -17 7 -10 -2 -17 3 -15 10 3 18 -15 15 -22 -4 -3 -9 -12 -14 -20 -11 -20 8
-28 -4 -13 -21 10 -13 9 -14 -3 -10 -8 2 -16 17 -18 32 -3 20 0 26 9 21 8 -5
10 -4 5 4 -13 21 -28 -1 -23 -34 5 -30 4 -32 -21 -26 -19 3 -22 6 -9 9 18 4
24 37 8 47 -6 3 -14 -3 -20 -12 -13 -23 -15 1 -2 26 7 13 5 17 -9 17 -10 0
-18 -3 -18 -6z m188 -70 c0 -5 -4 -10 -10 -10 -5 0 -10 5 -10 10 0 6 5 10 10
10 6 0 10 -4 10 -10z m40 -10 c0 -5 -7 -10 -16 -10 -8 0 -12 5 -9 10 3 6 10
10 16 10 5 0 9 -4 9 -10z m-320 -4 c0 -3 -4 -8 -10 -11 -5 -3 -10 -1 -10 4 0
6 5 11 10 11 6 0 10 -2 10 -4z m44 -27 c-3 -5 -10 -7 -15 -3 -5 3 -7 10 -3 15
3 5 10 7 15 3 5 -3 7 -10 3 -15z m96 6 c0 -8 -4 -15 -10 -15 -5 0 -10 7 -10
15 0 8 5 15 10 15 6 0 10 -7 10 -15z m165 -15 c-3 -5 -10 -10 -16 -10 -5 0 -9
5 -9 10 0 6 7 10 16 10 8 0 12 -4 9 -10z m-275 -34 c0 -3 -4 -8 -10 -11 -5 -3
-10 -1 -10 4 0 6 5 11 10 11 6 0 10 -2 10 -4z m-90 -11 c0 -2 -7 -8 -15 -15
-12 -10 -15 -10 -15 2 0 8 7 15 15 15 8 0 15 -1 15 -2z m200 -5 c0 -5 -5 -10
-11 -10 -5 0 -7 5 -4 10 3 6 8 10 11 10 2 0 4 -4 4 -10z m117 -22 c-3 -8 -6
-5 -6 6 -1 11 2 17 5 13 3 -3 4 -12 1 -19z m-211 -8 c9 0 13 -4 10 -9 -7 -11
-44 -3 -53 12 -4 7 0 8 11 4 10 -4 24 -7 32 -7z m444 -50 c0 -5 -4 -10 -10
-10 -5 0 -10 5 -10 10 0 6 5 10 10 10 6 0 10 -4 10 -10z m-170 -14 c0 -3 -4
-8 -10 -11 -5 -3 -10 -1 -10 4 0 6 5 11 10 11 6 0 10 -2 10 -4z m154 -61 c-4
-8 -8 -15 -10 -15 -2 0 -4 7 -4 15 0 8 4 15 10 15 5 0 7 -7 4 -15z"/>
<path d="M2561 3504 c0 -11 3 -14 6 -6 3 7 2 16 -1 19 -3 4 -6 -2 -5 -13z"/>
<path d="M1770 3480 c11 -7 1 -10 -36 -10 -64 0 -144 -11 -144 -19 0 -4 18 -5
41 -3 22 3 45 0 49 -4 5 -5 -9 -9 -33 -10 -36 0 -42 -3 -39 -20 2 -15 1 -16
-7 -5 -8 12 -16 11 -50 -7 -22 -12 -43 -17 -46 -13 -5 9 37 41 55 41 5 0 10 5
10 10 0 15 -90 -33 -127 -68 -17 -17 -37 -41 -43 -54 -7 -13 9 -1 34 26 35 36
50 46 63 41 10 -5 21 -7 26 -7 4 1 7 -4 7 -12 0 -17 -24 -28 -37 -15 -6 6 -18
0 -32 -15 l-23 -24 21 -7 c24 -7 28 -25 6 -25 -8 0 -15 -4 -15 -9 0 -5 7 -11
15 -15 8 -3 15 -12 15 -21 0 -18 12 -19 28 -3 10 10 15 10 22 -2 5 -8 7 -22 5
-30 -7 -24 7 -37 48 -44 38 -7 39 -8 32 -43 -4 -24 -3 -33 4 -28 6 3 11 26 11
50 0 47 18 71 27 36 6 -22 19 -28 25 -10 2 5 24 13 48 16 25 3 49 12 53 19 11
19 27 18 27 -1 0 -14 3 -13 25 1 22 14 25 14 25 1 0 -23 60 -28 90 -7 49 33
60 32 98 -6 27 -27 41 -34 59 -29 12 3 23 1 23 -4 0 -13 -27 -21 -47 -14 -11
4 -14 3 -9 -5 5 -8 -1 -12 -17 -12 -14 0 -30 -7 -37 -15 -7 -8 -16 -12 -21 -9
-5 2 -11 -7 -15 -22 -5 -19 -2 -29 10 -36 12 -7 14 -14 6 -28 -11 -21 3 -70
20 -70 5 0 10 -6 10 -13 0 -14 66 -55 73 -47 3 3 8 20 12 38 5 25 3 32 -9 32
-9 0 -16 4 -16 9 0 6 12 6 28 2 32 -10 72 -7 127 7 22 6 50 9 63 5 17 -4 22
-1 22 15 0 22 -53 72 -76 72 -8 0 -14 5 -14 10 0 6 -8 10 -17 10 -12 0 -14 3
-6 8 6 4 36 7 67 6 51 -1 55 1 50 20 -4 16 2 24 26 34 38 17 38 28 1 35 -16 3
-35 12 -43 20 -7 8 -31 22 -53 33 -34 16 -72 42 -186 127 -62 47 -195 111
-215 103 -8 -3 -13 -2 -10 3 3 5 -7 11 -24 13 -21 3 -30 0 -33 -11 -4 -13 -5
-13 -6 2 0 9 -9 17 -18 17 -15 0 -16 -2 -3 -10z m147 -36 c-3 -3 -12 -4 -19
-1 -8 3 -5 6 6 6 11 1 17 -2 13 -5z m-419 -131 c16 -16 16 -16 -1 -10 -10 4
-23 7 -28 7 -6 0 -7 5 -4 10 9 14 14 13 33 -7z m592 -133 c0 -5 -2 -10 -4 -10
-3 0 -8 5 -11 10 -3 6 -1 10 4 10 6 0 11 -4 11 -10z m70 -190 c0 -17 -3 -19
-19 -8 -21 13 -19 28 5 28 8 0 14 -9 14 -20z"/>
<path d="M1428 3193 c7 -3 16 -2 19 1 4 3 -2 6 -13 5 -11 0 -14 -3 -6 -6z"/>
<path d="M1700 3080 c-11 -20 3 -30 43 -30 24 -1 24 0 -32 -40 -12 -8 -21 -21
-21 -30 1 -12 3 -12 14 3 17 23 33 22 41 -3 5 -17 15 -20 60 -20 46 0 53 3 58
22 7 25 -12 43 -58 57 -16 5 -22 10 -12 10 9 1 17 5 17 10 0 15 -24 28 -62 34
-30 5 -40 2 -48 -13z"/>
<path d="M1810 2940 c0 -5 5 -10 10 -10 6 0 10 5 10 10 0 6 -4 10 -10 10 -5 0
-10 -4 -10 -10z"/>
<path d="M2515 2780 c-3 -5 -1 -10 4 -10 6 0 11 5 11 10 0 6 -2 10 -4 10 -3 0
-8 -4 -11 -10z"/>
<path d="M2040 2741 c0 -38 -19 -54 -44 -35 -23 17 -76 19 -76 3 0 -6 -7 -8
-17 -4 -14 5 -15 4 -6 -6 9 -9 6 -16 -13 -32 -21 -16 -25 -26 -20 -49 3 -18 2
-27 -4 -23 -6 3 -7 -1 -4 -9 10 -26 35 -16 48 18 6 18 8 17 22 -8 17 -35 5
-56 -35 -56 -20 0 -23 -2 -11 -10 8 -5 32 -10 52 -10 20 0 40 -4 43 -10 3 -5
28 -10 55 -10 41 0 52 -4 65 -24 13 -19 14 -29 6 -45 -13 -23 -50 -51 -67 -51
-16 0 -25 41 -12 57 8 10 7 13 -3 13 -19 0 -49 -20 -31 -20 7 0 10 -5 6 -12
-5 -8 -10 -7 -18 4 -19 26 -51 30 -71 8 -10 -11 -21 -17 -25 -15 -5 3 -11 -13
-15 -35 -7 -40 -19 -51 -28 -27 -4 8 -6 7 -6 -3 -1 -10 -11 -15 -30 -15 -16
-1 -27 3 -25 7 3 5 11 6 17 2 7 -3 3 3 -9 13 -11 10 -19 24 -17 30 2 6 -1 14
-6 18 -6 3 -11 17 -11 31 0 19 -5 25 -17 22 -11 -2 -18 -12 -17 -26 0 -12 -3
-22 -8 -22 -15 0 -8 -28 8 -34 14 -5 14 -9 3 -22 -10 -13 -10 -17 2 -25 8 -5
17 -9 20 -9 6 0 4 -41 -2 -90 -1 -8 -1 -26 0 -40 1 -20 3 -22 11 -10 8 13 10
13 10 -1 0 -9 7 -19 15 -23 8 -3 15 -10 15 -16 0 -17 20 -33 70 -59 25 -13 49
-29 53 -37 4 -8 19 -14 33 -14 14 0 27 -7 31 -17 9 -25 35 -43 52 -38 9 4 11
0 7 -11 -5 -13 -1 -16 23 -12 17 2 28 1 25 -4 -3 -4 2 -8 10 -8 9 0 16 -5 16
-10 0 -6 11 -8 25 -4 14 3 25 2 25 -4 0 -5 12 -7 28 -5 21 4 24 2 12 -6 -13
-10 -13 -12 0 -21 9 -6 11 -13 5 -17 -5 -5 -11 -14 -13 -21 -2 -10 2 -10 18
-2 42 22 8 -16 -61 -70 -39 -30 -79 -65 -89 -77 -10 -13 -22 -23 -28 -23 -5 0
-15 -7 -23 -16 -7 -8 -20 -13 -29 -11 -10 2 -42 -7 -71 -22 -50 -24 -55 -30
-74 -86 -12 -33 -29 -75 -39 -93 -9 -19 -15 -40 -12 -48 4 -10 2 -12 -5 -8 -7
4 -10 1 -7 -7 3 -8 -2 -23 -11 -34 -15 -18 -15 -19 2 -6 15 12 17 12 11 -3 -7
-19 -6 -19 36 -5 l33 12 -23 17 c-36 27 -8 80 34 64 21 -8 27 -33 14 -57 -6
-12 -12 -31 -14 -43 -2 -21 -32 -74 -41 -74 -3 0 5 16 17 35 30 48 19 44 -14
-5 -14 -21 -26 -50 -25 -62 0 -13 -4 -41 -10 -63 -18 -68 -11 -74 9 -7 19 70
33 91 45 71 6 -8 4 -10 -5 -4 -10 6 -12 -3 -6 -46 8 -62 8 -61 28 -54 11 4 14
21 13 63 -1 31 4 71 10 87 7 17 10 35 8 41 -2 6 11 26 29 45 18 19 31 40 30
47 -2 6 2 12 8 12 6 0 8 -4 5 -10 -3 -5 -1 -10 4 -10 6 0 11 5 11 10 0 6 6 10
13 8 6 -1 23 4 36 11 12 7 32 11 42 8 10 -3 19 -1 19 4 0 5 3 8 8 7 4 -1 20 4
35 10 16 7 34 12 40 11 7 0 2 -4 -11 -10 -13 -5 -21 -13 -17 -18 3 -5 -6 -21
-20 -35 -25 -25 -33 -70 -15 -81 6 -4 23 7 39 24 16 17 36 31 45 31 9 0 19 7
22 15 4 8 10 15 15 15 5 0 9 -7 9 -15 0 -8 -5 -15 -12 -15 -9 0 -9 -3 -1 -11
14 -14 63 13 63 35 0 7 11 19 25 26 14 8 42 35 62 62 20 26 39 46 41 43 3 -2
0 -10 -5 -17 -28 -35 -103 -183 -103 -204 0 -13 -5 -24 -11 -24 -5 0 -8 -4 -5
-9 9 -13 -43 -44 -65 -38 -10 3 -22 1 -25 -4 -3 -5 4 -9 15 -9 11 0 22 -4 25
-9 3 -4 -7 -6 -22 -4 -23 3 -24 2 -7 -6 18 -8 17 -10 -12 -21 -44 -16 -43 -34
2 -27 21 3 33 2 30 -4 -4 -5 -22 -9 -41 -9 -19 0 -33 -4 -30 -9 4 -5 -6 -19
-21 -30 -16 -11 -22 -21 -14 -21 9 0 6 -7 -10 -21 -19 -17 -21 -22 -9 -29 12
-8 11 -10 -5 -10 -28 0 -49 -16 -40 -29 5 -9 11 -7 21 6 12 16 13 16 14 2 0
-26 -27 -44 -44 -30 -12 10 -14 8 -12 -14 2 -16 -3 -30 -14 -38 -10 -7 -24
-31 -30 -55 -7 -23 -17 -42 -21 -42 -5 0 -6 -7 -3 -15 7 -18 4 -18 -31 -5 -14
5 -23 14 -20 20 3 5 2 10 -4 10 -18 0 -23 -20 -6 -26 10 -4 14 -13 10 -28 -5
-17 -4 -18 4 -6 9 12 11 11 11 -9 0 -18 -4 -22 -20 -18 -13 3 -20 0 -20 -8 0
-8 8 -16 18 -18 9 -3 2 -5 -15 -6 -39 -1 -44 -18 -8 -23 26 -3 26 -3 4 -16
-11 -8 -18 -9 -14 -3 3 6 2 11 -3 11 -6 0 -13 -7 -16 -16 -9 -23 -8 -27 9 -20
8 3 15 1 15 -5 0 -5 -7 -12 -15 -15 -8 -4 -15 -16 -15 -28 1 -20 1 -21 15 -2
8 11 18 16 22 13 4 -4 1 -13 -5 -19 -7 -7 -12 -34 -12 -61 0 -29 -4 -46 -10
-42 -5 3 -10 21 -10 40 0 41 -9 67 -21 59 -5 -3 -9 3 -10 13 0 13 -3 11 -10
-7 -6 -14 -9 -26 -7 -28 2 -2 -5 -8 -15 -14 -15 -8 -16 -12 -5 -26 11 -13 11
-15 -3 -10 -11 4 -21 -2 -30 -20 -21 -41 -36 -55 -43 -39 -3 6 -4 -1 -1 -18 4
-21 3 -26 -4 -16 -7 11 -13 6 -25 -24 -13 -30 -15 -57 -10 -131 7 -94 7 -94
34 -94 14 0 60 11 101 25 69 24 201 55 329 77 30 5 54 10 55 11 0 1 7 23 16
49 9 26 12 45 8 42 -15 -9 -10 15 11 56 11 21 17 45 14 53 -3 8 8 30 23 48 16
19 34 46 41 62 6 15 16 27 22 27 6 0 23 14 38 30 29 33 43 38 137 50 33 5 89
20 124 34 63 25 112 36 61 14 -125 -56 -310 -149 -330 -167 l-25 -22 55 5 c30
3 66 9 79 13 17 4 22 3 17 -5 -4 -7 -16 -12 -27 -12 -10 0 -19 -4 -19 -9 0
-11 95 -4 149 10 19 5 36 7 38 5 7 -7 -100 -37 -149 -43 -27 -3 -44 -9 -38
-13 6 -4 -27 -5 -73 -4 -58 3 -89 -1 -102 -10 -15 -11 -10 -12 38 -8 46 4 59
1 78 -17 20 -19 21 -23 9 -46 -7 -14 -20 -25 -29 -26 -51 -2 -81 -19 -35 -19
39 0 234 -51 234 -61 0 -5 6 -6 14 -3 8 3 16 -3 19 -15 3 -13 13 -21 25 -21
12 0 24 -5 27 -10 3 -6 -1 -10 -10 -10 -9 0 -13 -4 -10 -10 4 -6 -5 -10 -21
-10 -22 0 -25 -2 -14 -15 10 -12 10 -15 0 -15 -7 0 -10 -6 -7 -14 4 -11 -4
-16 -31 -18 -34 -3 -37 -5 -38 -38 -1 -19 1 -29 3 -22 7 17 33 15 33 -3 0 -8
-5 -15 -12 -15 -6 0 -8 -3 -5 -7 4 -3 3 -11 -3 -18 -6 -7 -3 -24 7 -48 l17
-37 658 0 658 0 0 420 0 419 -32 5 c-113 18 -184 26 -238 26 -56 0 -61 -2 -55
-19 17 -55 5 -238 -20 -306 -8 -22 -17 -59 -21 -83 -7 -45 -43 -103 -44 -70 0
9 4 20 10 23 5 3 10 16 10 28 0 43 4 65 11 61 11 -6 18 49 9 66 -5 9 -2 29 7
50 9 23 13 51 9 80 -11 84 -20 215 -18 260 1 39 0 42 -9 20 -6 -14 -7 -51 -4
-85 6 -51 3 -69 -15 -108 -21 -45 -60 -82 -60 -57 0 6 7 13 15 16 8 4 15 14
15 23 -1 14 -2 14 -14 -1 -20 -28 -28 -21 -20 17 3 20 2 35 -3 35 -11 0 -11
90 0 108 5 7 4 12 -2 12 -14 0 -14 37 -1 45 6 3 7 -1 4 -9 -3 -9 -2 -16 4 -16
5 0 13 7 16 16 4 10 13 13 26 9 18 -6 17 -3 -5 19 -14 14 -31 26 -38 26 -16 1
-54 30 -38 30 7 0 9 5 4 13 -4 6 -9 46 -10 87 -4 128 -5 134 -33 141 l-25 7
23 7 c30 10 28 18 -8 33 -29 13 -34 31 -17 60 5 7 3 12 -3 12 -7 0 -9 7 -6 17
6 16 6 16 -12 0 -10 -9 -23 -17 -28 -17 -11 0 -39 30 -47 51 -4 10 -6 10 -6 2
-1 -7 -5 -13 -10 -13 -5 0 -7 9 -4 20 4 14 0 20 -12 20 -9 0 -15 6 -12 13 2 6
9 11 15 10 5 -1 13 5 16 13 4 11 2 15 -6 11 -8 -3 -14 5 -15 21 -1 18 1 21 8
11 5 -8 9 -9 9 -3 0 6 -7 17 -15 24 -12 10 -12 15 2 36 15 23 17 24 34 8 10
-9 17 -21 16 -27 -1 -6 23 -23 53 -39 30 -15 72 -45 94 -66 24 -22 33 -28 23
-13 -18 27 -104 91 -122 91 -7 0 -23 16 -36 36 -34 50 -125 84 -144 53 -4 -6
-13 -8 -21 -5 -8 3 -14 2 -14 -3 0 -8 -21 -14 -92 -27 -18 -4 -107 -56 -142
-84 -54 -42 -143 -139 -151 -165 -6 -16 -15 -30 -20 -30 -18 0 -36 -17 -32
-28 2 -6 -5 -18 -15 -27 -10 -8 -32 -42 -49 -75 -16 -33 -27 -49 -24 -35 9 38
137 290 147 290 4 0 -1 -19 -12 -42 l-21 -43 30 35 c17 19 31 40 31 46 0 18
41 65 50 59 5 -3 12 0 16 6 4 8 3 9 -4 5 -20 -12 -13 3 21 49 36 48 128 107
197 125 25 7 50 16 55 20 6 4 34 11 63 15 63 8 112 -8 112 -36 0 -13 7 -19 24
-19 14 0 37 -5 52 -10 52 -20 6 18 -66 54 -98 48 -139 44 -295 -34 -66 -33
-108 -51 -92 -39 34 26 36 47 2 25 -23 -15 -27 -15 -41 -1 -13 12 -14 19 -4
30 10 12 9 15 -4 15 -26 0 -19 36 17 76 25 29 27 35 10 26 -28 -16 -34 -15
-27 2 3 9 -3 17 -16 21 -12 4 -19 9 -17 12 3 2 14 0 24 -5 11 -6 25 -7 35 -1
13 7 14 13 5 34 -7 14 -17 23 -23 21 -10 -4 -12 1 -16 44 -1 11 -8 20 -15 20
-7 0 -13 9 -13 21 0 12 -7 36 -16 55 -15 31 -18 33 -29 18 -11 -16 -12 -16
-18 0 -4 9 -1 16 6 17 7 0 1 5 -13 10 -26 11 -74 4 -66 -9 5 -8 -15 -12 -69
-13 -16 -1 -22 -4 -12 -6 36 -9 16 -23 -25 -17 -24 3 -51 7 -60 8 -10 1 -21 5
-25 9 -10 11 -14 49 -7 67 4 8 9 26 11 40 2 13 8 27 12 30 15 10 34 111 35
185 1 28 7 56 14 64 11 11 10 16 -3 30 -8 10 -15 23 -15 29 0 16 41 82 51 82
5 0 9 5 9 10 0 6 -8 10 -17 10 -16 1 -15 2 2 12 11 6 21 12 23 13 1 1 -2 13
-7 26 -8 21 -10 22 -16 7 -4 -10 -12 -18 -17 -18 -7 0 -7 5 0 13 15 17 11 57
-5 57 -7 0 -13 -9 -13 -20 0 -12 -5 -17 -14 -14 -7 3 -16 -2 -19 -10 -4 -9 -2
-16 3 -16 20 0 9 -20 -20 -35 -16 -9 -30 -21 -30 -28 0 -8 -20 -12 -64 -12
-44 -1 -68 -6 -79 -17 -9 -8 -14 -18 -11 -21 7 -7 -46 -87 -57 -87 -5 0 -4 12
1 26 16 40 12 59 -16 89 -20 22 -37 29 -68 30 -22 1 -54 8 -71 14 l-30 13 24
9 c17 7 27 6 33 -3 5 -9 8 -8 8 5 0 11 5 15 11 11 7 -4 9 0 6 12 -4 11 -9 31
-13 47 -8 37 -34 36 -34 -2z m-116 -83 c-3 -4 -11 -5 -19 -1 -21 7 -19 12 4
10 11 0 18 -5 15 -9z m-30 -352 c-3 -9 -10 -16 -15 -16 -14 0 -11 28 4 33 16
6 19 3 11 -17z m773 -192 c-3 -3 -12 -4 -19 -1 -8 3 -5 6 6 6 11 1 17 -2 13
-5z m133 -214 c8 -5 11 -10 5 -10 -5 0 -17 5 -25 10 -8 5 -10 10 -5 10 6 0 17
-5 25 -10z m315 -240 c3 -6 -1 -7 -9 -4 -18 7 -21 14 -7 14 6 0 13 -4 16 -10z
m-775 -4 c0 -3 -4 -8 -10 -11 -5 -3 -10 -1 -10 4 0 6 5 11 10 11 6 0 10 -2 10
-4z m820 -16 c-6 -11 -20 -20 -31 -20 -17 0 -18 2 -7 13 11 11 29 22 46 26 1
1 -2 -8 -8 -19z m-859 -4 c-14 -17 -110 -63 -148 -72 l-28 -6 25 14 c14 8 46
22 72 31 25 10 52 25 58 33 7 7 17 14 22 14 6 0 6 -6 -1 -14z m787 -21 c-3 -3
-9 2 -12 12 -6 14 -5 15 5 6 7 -7 10 -15 7 -18z m-1128 -5 c0 -5 -12 -10 -27
-9 -25 0 -26 1 -8 9 27 12 35 12 35 0z m1171 -23 c-10 -9 -11 -8 -5 6 3 10 9
15 12 12 3 -3 0 -11 -7 -18z m-71 -21 c0 -3 -4 -8 -10 -11 -5 -3 -10 -1 -10 4
0 6 5 11 10 11 6 0 10 -2 10 -4z m78 -26 c-1 -33 -14 -41 -20 -12 -3 13 9 40
19 42 1 0 1 -13 1 -30z m-516 -2 c4 -34 2 -86 -3 -82 -4 2 -10 -12 -13 -31 -4
-19 -14 -41 -22 -50 -8 -8 -13 -18 -11 -22 3 -5 -1 -14 -9 -21 -20 -18 -18
-10 17 71 22 53 29 82 26 110 -3 20 -1 37 4 37 5 0 10 -6 11 -12z m298 -20 c0
-13 -23 -5 -28 10 -2 7 2 10 12 6 9 -3 16 -11 16 -16z m-345 -38 c3 -16 2 -37
-4 -47 -9 -15 -10 -13 -6 12 5 28 5 29 -5 6 -6 -14 -8 -31 -6 -38 3 -7 2 -13
-2 -14 -4 0 -17 -2 -29 -5 -29 -5 -36 8 -21 43 12 28 47 71 60 72 3 1 9 -12
13 -29z m435 20 c0 -5 -5 -10 -11 -10 -5 0 -7 5 -4 10 3 6 8 10 11 10 2 0 4
-4 4 -10z m-820 -10 c0 -5 -5 -10 -11 -10 -5 0 -7 5 -4 10 3 6 8 10 11 10 2 0
4 -4 4 -10z m673 -28 c-22 -23 -33 -27 -51 -21 -25 9 -27 15 -10 25 7 4 8 3 4
-4 -5 -8 1 -12 15 -12 12 0 19 3 16 7 -7 6 45 43 52 37 2 -2 -10 -16 -26 -32z
m-68 -33 c11 -17 0 -20 -21 -4 -17 13 -17 14 -2 15 9 0 20 -5 23 -11z m-9 -33
c12 -13 11 -16 -8 -21 -13 -4 -31 -14 -40 -23 -10 -8 -18 -12 -18 -8 0 13
-147 -134 -161 -161 -8 -16 -20 -34 -26 -41 -7 -7 -13 -18 -13 -24 0 -5 24 12
54 39 35 31 49 51 42 56 -6 5 -1 6 11 2 15 -4 23 -1 27 13 7 22 33 25 40 5 3
-8 1 -11 -4 -8 -6 3 -10 2 -10 -4 0 -5 -26 -28 -57 -52 -32 -23 -75 -62 -95
-86 -29 -34 -38 -40 -38 -25 0 11 6 25 14 32 8 6 12 18 9 26 -6 17 49 103 106
165 22 24 37 48 34 54 -4 5 -2 7 2 2 9 -8 45 20 45 36 0 5 -8 3 -17 -4 -16
-13 -17 -12 -5 3 7 9 22 15 32 13 10 -2 21 3 24 11 7 18 33 18 52 0z m-261
-26 c4 -6 -6 -10 -22 -10 -22 0 -25 2 -13 10 19 12 27 12 35 0z m-5 -50 c-6
-11 -15 -20 -19 -20 -5 0 -7 9 -4 20 3 11 12 20 20 20 11 0 11 -4 3 -20z m775
10 c3 -5 1 -10 -4 -10 -6 0 -11 5 -11 10 0 6 2 10 4 10 3 0 8 -4 11 -10z
m-1025 -180 c0 -5 -5 -10 -11 -10 -5 0 -7 5 -4 10 3 6 8 10 11 10 2 0 4 -4 4
-10z m399 -29 c-7 -10 -28 -26 -48 -37 -20 -10 -48 -30 -62 -44 -28 -27 -69
-53 -74 -48 -10 10 64 87 93 98 23 8 32 16 28 27 -5 12 -1 14 18 9 14 -3 28
-2 31 4 3 5 10 10 16 10 5 0 4 -8 -2 -19z m-411 -18 c-1 -16 -4 -32 -7 -38 -2
-5 -6 -20 -7 -33 -4 -37 -12 -52 -26 -51 -9 0 -9 2 -1 5 7 4 10 23 7 60 -3 34
-1 54 6 54 5 0 9 3 9 8 -3 14 1 22 11 22 5 0 9 -12 8 -27z m457 -82 c-3 -5
-42 -22 -88 -37 -45 -15 -106 -42 -134 -60 -29 -19 -53 -30 -53 -26 1 10 30
48 30 38 0 -5 6 -3 14 4 8 6 12 18 10 25 -6 14 33 41 44 31 3 -3 1 -6 -5 -6
-6 0 -14 -7 -17 -16 -6 -15 -4 -15 19 0 20 13 78 31 183 55 2 1 1 -3 -3 -8z
m-600 -86 c1 -16 -1 -41 -5 -57 -5 -17 -5 -28 1 -28 6 0 8 -4 5 -9 -6 -10 -86
9 -86 21 0 4 4 8 9 8 5 0 11 9 14 20 3 13 0 20 -9 20 -8 0 -14 5 -14 10 0 6
11 10 24 10 28 0 43 16 24 23 -10 4 -9 8 2 16 19 13 31 1 35 -34z m106 8 c-8
-15 -10 -15 -11 -2 0 17 10 32 18 25 2 -3 -1 -13 -7 -23z m427 -29 c-4 -3 -44
-30 -90 -59 -84 -55 -198 -150 -198 -166 0 -5 -9 -18 -20 -29 -28 -28 -25 -16
10 35 35 50 39 55 109 114 28 24 49 46 46 49 -2 3 -11 -1 -20 -8 -8 -7 -15 -8
-15 -2 0 13 27 23 45 15 9 -3 23 1 33 10 23 20 74 46 91 47 8 0 12 -3 9 -6z
m-508 -35 c0 -6 -4 -7 -10 -4 -5 3 -10 11 -10 16 0 6 5 7 10 4 6 -3 10 -11 10
-16z m1227 -1 c-3 -8 -6 -5 -6 6 -1 11 2 17 5 13 3 -3 4 -12 1 -19z m23 -78
c0 -5 -4 -10 -10 -10 -5 0 -10 5 -10 10 0 6 5 10 10 10 6 0 10 -4 10 -10z m98
-76 c3 -22 -70 -143 -76 -125 -2 7 2 20 10 29 26 33 50 91 44 107 -4 11 -2 15
6 13 7 -3 14 -13 16 -24z m-993 6 c-3 -5 -14 -10 -23 -10 -15 0 -15 2 -2 10
20 13 33 13 25 0z m884 -41 c-19 -12 -24 -2 -8 17 9 11 14 13 17 4 3 -7 -2
-16 -9 -21z m62 -370 c-11 -48 -40 -121 -41 -102 0 7 4 22 9 35 5 13 15 45 22
71 15 59 23 56 10 -4z m-861 -169 c0 -5 -4 -10 -10 -10 -5 0 -10 5 -10 10 0 6
5 10 10 10 6 0 10 -4 10 -10z"/>
<path d="M2080 895 c0 -8 4 -15 10 -15 5 0 7 7 4 15 -4 8 -8 15 -10 15 -2 0
-4 -7 -4 -15z"/>
<path d="M1765 2549 c-4 -6 -5 -12 -4 -14 7 -7 59 8 59 16 0 13 -47 11 -55 -2z"/>
<path d="M1715 2250 c-4 -12 -5 -24 -2 -27 3 -2 8 5 12 17 4 12 5 24 2 27 -3
2 -8 -5 -12 -17z"/>
<path d="M1887 1870 c-9 -29 -17 -65 -17 -80 0 -16 -6 -31 -12 -33 -10 -4 -9
-8 2 -16 13 -10 13 -13 -2 -22 -23 -13 -23 -27 -2 -25 9 0 19 -5 22 -13 3 -9
0 -11 -8 -6 -10 6 -12 4 -7 -7 3 -9 0 -21 -6 -28 -8 -7 2 -6 26 4 20 8 39 14
41 13 3 -1 8 1 12 6 4 4 2 7 -4 7 -7 0 -7 11 0 37 7 25 6 60 -1 111 -16 105
-24 114 -44 52z"/>
<path d="M1565 1715 c-51 -52 -100 -132 -131 -215 -9 -25 -13 -29 -14 -15 -4
41 -18 -41 -19 -113 -1 -47 -5 -71 -11 -67 -6 4 -10 51 -9 116 0 61 -1 113 -4
115 -8 8 -17 -99 -12 -146 3 -30 1 -40 -5 -30 -5 8 -10 25 -10 38 0 12 -5 22
-10 22 -10 0 -6 -32 11 -78 15 -40 9 -59 -7 -23 -23 53 -26 31 -4 -29 20 -54
20 -83 0 -39 -6 13 -17 35 -25 49 l-15 25 0 -23 c0 -12 9 -41 21 -63 11 -22
18 -46 16 -52 -2 -7 -13 6 -25 28 -19 37 -21 38 -22 14 0 -15 7 -43 15 -62 19
-47 19 -70 -1 -34 -8 15 -16 27 -18 27 -6 0 3 -57 18 -110 9 -30 15 -66 15
-80 -1 -21 -2 -19 -11 10 -5 19 -14 40 -20 45 -7 7 -8 3 -4 -11 9 -29 -17 -77
-32 -62 -7 7 -15 8 -19 4 -4 -4 0 -12 9 -17 10 -6 22 -18 28 -29 10 -18 9 -19
-29 -5 -26 9 -42 10 -49 3 -6 -6 -12 -6 -16 1 -4 6 -14 11 -23 11 -14 0 -14
-3 3 -21 11 -13 14 -23 8 -27 -6 -4 -13 -15 -17 -25 -5 -14 -13 -17 -29 -11
-13 3 2 -11 32 -34 99 -72 137 -112 93 -95 -16 6 -16 5 -4 -10 8 -10 12 -19
10 -20 -2 -2 -15 -9 -29 -15 -14 -7 -17 -10 -7 -8 10 4 17 0 17 -9 0 -8 -7
-15 -16 -15 -10 0 -14 -6 -11 -14 4 -10 0 -12 -15 -8 -18 4 -20 2 -16 -16 5
-16 2 -22 -11 -22 -25 0 -61 -29 -61 -49 0 -20 -19 -31 -51 -31 -12 0 -16 -5
-13 -15 4 -9 0 -15 -9 -15 -28 0 1 -59 44 -88 21 -15 57 -40 81 -57 74 -53 75
-53 154 54 39 53 73 103 77 111 3 8 6 -5 6 -30 1 -25 6 -74 12 -110 15 -93 -3
-140 -55 -140 -12 0 -32 -9 -45 -21 -12 -11 -28 -18 -35 -16 -16 6 -31 -23
-56 -105 l-18 -58 58 0 58 0 16 40 c9 22 16 46 16 52 0 17 47 74 84 103 29 22
38 24 79 16 25 -4 51 -5 58 0 7 4 20 3 31 -2 10 -5 27 -14 38 -19 19 -10 20
-7 20 82 0 51 7 134 16 183 9 50 14 114 12 143 -3 28 -2 52 1 52 4 0 6 26 5
58 -1 31 -3 57 -4 57 -10 0 -17 323 -10 527 2 65 1 120 -2 123 -6 7 -58 -205
-63 -254 -1 -14 -5 -46 -8 -71 -4 -25 -9 -72 -12 -105 -2 -33 -9 -82 -14 -110
-9 -46 -8 -274 4 -525 3 -70 1 -96 -5 -77 -13 42 -19 109 -31 352 -14 282 -12
268 -25 272 -21 7 -35 -194 -19 -259 5 -18 3 -28 -4 -28 -6 0 -12 10 -13 23
-2 31 -3 38 -16 70 -15 34 -32 27 -32 -14 0 -17 -3 -28 -7 -26 -11 7 -12 -217
-2 -223 5 -3 5 -19 0 -35 -8 -29 -9 -28 -15 20 -4 28 -12 60 -18 72 -7 15 -9
68 -4 160 11 216 30 335 75 468 22 66 43 129 46 140 6 16 5 17 -4 5 -9 -13
-11 -13 -11 2 0 9 -10 19 -22 22 -13 2 -6 4 15 2 38 -2 39 -1 68 56 16 32 29
60 29 63 -1 28 1 35 9 33 9 -3 111 157 111 174 0 21 -80 -81 -80 -104 -1 -7
-7 -26 -14 -43 -13 -29 -13 -29 -10 20 l4 50 -14 -50 c-34 -118 -76 -217 -76
-177 0 6 -7 9 -16 5 -12 -4 -15 -2 -12 8 3 8 12 13 19 11 11 -3 11 -1 2 9 -10
10 -15 9 -28 -1 -12 -10 -19 -10 -27 -2 -23 23 33 173 108 292 l16 25 -20 -25
c-11 -14 -28 -34 -37 -45 -9 -11 -2 8 16 43 18 34 49 78 71 97 21 19 34 35 28
35 -5 0 -34 -25 -65 -55z m-278 -1627 c-3 -8 -6 -5 -6 6 -1 11 2 17 5 13 3 -3
4 -12 1 -19z m-16 -49 c-5 -13 -10 -19 -10 -12 -1 15 10 45 15 40 3 -2 0 -15
-5 -28z"/>
<path d="M3056 1732 c-2 -4 -19 -9 -37 -10 -17 -1 -39 -7 -48 -13 -14 -9 -14
-10 2 -5 10 3 37 6 58 6 27 0 38 4 33 11 -4 8 1 9 17 4 19 -5 21 -4 9 4 -18
13 -27 14 -34 3z"/>
<path d="M2015 1710 c-3 -5 -1 -10 4 -10 6 0 11 5 11 10 0 6 -2 10 -4 10 -3 0
-8 -4 -11 -10z"/>
<path d="M2883 1670 c-29 -17 -53 -33 -53 -35 0 -3 26 9 58 27 66 37 68 38 56
38 -5 0 -33 -14 -61 -30z"/>
<path d="M3320 1689 c0 -18 31 -77 51 -94 22 -20 22 -20 10 0 -49 81 -61 99
-61 94z"/>
<path d="M1832 1666 c7 -8 15 -12 17 -11 5 6 -10 25 -20 25 -5 0 -4 -6 3 -14z"/>
<path d="M3018 1673 c7 -3 16 -2 19 1 4 3 -2 6 -13 5 -11 0 -14 -3 -6 -6z"/>
<path d="M1803 1642 c-13 -22 -27 -82 -19 -82 4 0 12 12 18 28 l11 27 7 -30 6
-30 7 28 c5 19 3 34 -5 44 -7 9 -11 18 -10 20 2 3 2 6 0 8 -2 2 -9 -4 -15 -13z"/>
<path d="M2836 1615 c-14 -11 -16 -15 -5 -15 8 0 23 7 33 15 14 11 16 15 5 15
-8 0 -23 -7 -33 -15z"/>
<path d="M1727 1603 c-2 -10 -8 -27 -13 -37 -5 -13 -4 -17 3 -13 14 9 35 67
24 67 -5 0 -11 -8 -14 -17z"/>
<path d="M2790 1585 c-9 -10 -9 -15 -1 -15 6 0 11 5 11 11 0 5 5 7 12 3 7 -4
8 -3 4 4 -9 15 -11 15 -26 -3z"/>
<path d="M1705 1529 c-4 -6 -5 -12 -2 -15 2 -3 7 2 10 11 7 17 1 20 -8 4z"/>
<path d="M1656 1515 c-9 -26 -7 -32 5 -12 6 10 9 21 6 23 -2 3 -7 -2 -11 -11z"/>
<path d="M1505 1509 c-4 -6 -5 -12 -2 -15 2 -3 7 2 10 11 7 17 1 20 -8 4z"/>
<path d="M1476 1455 c-3 -8 -1 -15 4 -15 6 0 10 7 10 15 0 8 -2 15 -4 15 -2 0
-6 -7 -10 -15z"/>
<path d="M1670 1450 c-6 -11 -8 -20 -6 -20 3 0 10 9 16 20 6 11 8 20 6 20 -3
0 -10 -9 -16 -20z"/>
<path d="M1538 1427 c-3 -19 -2 -25 4 -19 6 6 8 18 6 28 -3 14 -5 12 -10 -9z"/>
<path d="M1460 1404 c-13 -33 -13 -57 0 -49 6 3 10 15 10 26 0 11 4 18 9 15 5
-4 7 3 4 14 -7 26 -12 25 -23 -6z"/>
<path d="M2645 1389 c-4 -6 -5 -12 -2 -15 2 -3 7 2 10 11 7 17 1 20 -8 4z"/>
<path d="M3330 1370 c0 -5 5 -10 11 -10 5 0 7 5 4 10 -3 6 -8 10 -11 10 -2 0
-4 -4 -4 -10z"/>
<path d="M2190 1330 c0 -5 4 -10 9 -10 6 0 13 5 16 10 3 6 -1 10 -9 10 -9 0
-16 -4 -16 -10z"/>
<path d="M1723 1211 c-10 -16 -8 -17 13 -13 26 5 32 17 11 25 -7 3 -18 -3 -24
-12z"/>
<path d="M1710 1141 c0 -6 4 -13 10 -16 6 -3 7 1 4 9 -7 18 -14 21 -14 7z"/>
<path d="M3481 1074 c0 -11 3 -14 6 -6 3 7 2 16 -1 19 -3 4 -6 -2 -5 -13z"/>
<path d="M1756 1034 c-4 -14 -5 -28 -3 -31 3 -2 8 8 11 23 4 14 5 28 3 31 -3
2 -8 -8 -11 -23z"/>
<path d="M3521 1024 c0 -11 3 -14 6 -6 3 7 2 16 -1 19 -3 4 -6 -2 -5 -13z"/>
<path d="M1732 966 c-15 -33 -11 -44 7 -22 7 8 11 23 9 32 -2 14 -6 11 -16
-10z"/>
<path d="M3545 960 c3 -5 8 -10 11 -10 2 0 4 5 4 10 0 6 -5 10 -11 10 -5 0 -7
-4 -4 -10z"/>
<path d="M2360 241 c0 -8 -7 -10 -21 -6 -15 5 -19 4 -15 -4 5 -7 -5 -17 -23
-24 -17 -7 -28 -17 -24 -22 5 -4 0 -5 -10 -2 -10 4 -28 2 -39 -4 -11 -6 -42
-11 -69 -12 -27 -1 -49 -5 -49 -8 0 -12 -75 -8 -102 6 -16 7 -26 10 -23 5 7
-12 186 -102 279 -141 71 -30 106 -36 106 -19 0 6 -9 10 -21 10 -11 0 -17 4
-14 10 12 19 -5 31 -27 19 -18 -9 -20 -9 -15 4 3 9 1 18 -6 20 -7 2 -1 2 11 0
13 -2 21 0 18 5 -2 4 16 8 42 8 32 -1 46 3 45 11 -2 9 7 11 30 7 22 -4 28 -3
18 4 -15 11 -5 36 13 29 7 -3 11 8 12 28 0 26 -3 31 -17 28 -11 -3 -19 3 -24
16 -4 13 -15 21 -29 21 -12 0 -27 5 -34 12 -9 9 -12 9 -12 -1z"/>
<path d="M2470 100 c0 -19 3 -21 12 -12 9 9 9 15 0 24 -9 9 -12 7 -12 -12z"/>
<path d="M2456 24 c-4 -9 -3 -20 0 -23 4 -3 9 0 11 7 5 14 43 16 43 2 0 -5 5
-10 10 -10 22 0 8 19 -21 29 -39 14 -36 14 -43 -5z"/>
<path d="M2395 10 c3 -5 13 -10 21 -10 8 0 14 5 14 10 0 6 -9 10 -21 10 -11 0
-17 -4 -14 -10z"/>
</g>
</svg>
